<svg width="120" height="120" xmlns="http://www.w3.org/2000/svg">

 <g>
  <title>background</title>
  <rect fill="none" id="canvas_background" height="402" width="582" y="-1" x="-1"/>
 </g>
 <g>
  <title>Layer 1</title>
  <path id="svg_2" fill="#bdbdbd" d="m35.286999,86.190002c-0.27,0 -0.538998,-0.073006 -0.778,-0.218002c-6.710999,-4.071999 -8.808998,-11.513 -5.813999,-20.494003c-2.772999,-4.040997 -4.233999,-8.594997 -4.233999,-13.218998c0,-15.215 15.561998,-27.593998 34.689001,-27.593998s34.689995,12.377998 34.689995,27.592999s-15.561996,27.594997 -34.689995,27.594997c-6.116001,0 -12.105003,-1.275993 -17.365002,-3.695999c-3.278999,1.241005 -4.792,2.946999 -4.999001,8.589005c-0.02,0.530998 -0.319,1.013 -0.786999,1.264999c-0.223,0.119995 -0.468002,0.179001 -0.712002,0.179001zm23.863003,-58.526003c-17.474003,0 -31.689001,11.032999 -31.689001,24.594c0,4.232002 1.423,8.416 4.115,12.097004c0.295,0.403 0.368999,0.925995 0.199999,1.394997c-2.491999,6.896004 -1.684,12.523003 2.244001,16.132004c0.681999,-4.780006 2.798,-7.194 7.352001,-8.765007c0.372997,-0.128998 0.781998,-0.104996 1.139999,0.066002c4.992001,2.400002 10.745998,3.668999 16.639,3.668999c17.473999,0 31.688995,-11.032997 31.688995,-24.593998s-14.215996,-24.594 -31.689995,-24.594z"/>
  <path id="svg_4" fill="#bdbdbd" d="m93.748192,101.566246c-0.237999,0 -0.477005,-0.056999 -0.695,-0.170998c-0.479004,-0.25 -0.785004,-0.737999 -0.804001,-1.277c-0.145004,-4.18 -1.104004,-5.468002 -3.299004,-6.391998c-3.910995,1.874001 -8.347,2.861 -12.874001,2.861c-12.92799,0 -23.761993,-7.806999 -25.759995,-18.563004c-0.09,-0.484001 0.063,-0.981003 0.41,-1.331001c0.347,-0.348999 0.844002,-0.505997 1.328003,-0.418999c2.355,0.419998 4.746998,0.633003 7.108997,0.633003c14.671997,0 27.334999,-7.729004 30.794998,-18.796001c0.140999,-0.450996 0.486,-0.808998 0.931,-0.965996c0.445,-0.157001 0.937996,-0.096001 1.332001,0.166c6.312996,4.201996 9.932999,10.498997 9.932999,17.276997c0,3.641998 -1.072998,7.229996 -3.111,10.423996c2.203003,7.130005 0.588997,13.051003 -4.482002,16.316002c-0.248001,0.157997 -0.529999,0.237999 -0.812996,0.237999zm-4.869003,-10.977997c0.174004,0 0.348999,0.029999 0.514999,0.090996c3.238998,1.184006 4.907005,3.021004 5.550003,6.379005c2.335999,-2.761002 2.712997,-6.846001 1.028999,-11.790001c-0.153,-0.449005 -0.084,-0.944 0.184998,-1.334999c1.960999,-2.844002 2.997002,-6.076004 2.997002,-9.347c0,-5.184006 -2.539001,-10.067001 -7.031998,-13.643002c-4.632004,11.259998 -17.841003,18.962002 -32.957996,18.962002c-1.779003,0 -3.573002,-0.112007 -5.357002,-0.335007c2.697002,8.123001 11.848995,14.016006 22.27,14.016006c4.292999,0 8.483994,-0.980003 12.120995,-2.835007c0.212006,-0.107994 0.445,-0.162994 0.68,-0.162994z"/>
  <rect fill="none" y="10.086477" x="-124.003905" width="128" id="_x3C_Slice_x3E__4_" height="128"/>
 </g>
</svg>