<svg width="32" height="32" xmlns="http://www.w3.org/2000/svg">
 <title/>
 <desc/>

 <g>
  <title>background</title>
  <rect fill="none" id="canvas_background" height="402" width="582" y="-1" x="-1"/>
 </g>
 <g>
  <title>Layer 1</title>
  <path fill="#a6a6a6" id="search" d="m19.42712,21.42712c-1.38987,0.99036 -3.090469,1.57288 -4.92712,1.57288c-4.69442,0 -8.5,-3.80558 -8.5,-8.5c0,-4.69442 3.80558,-8.5 8.5,-8.5c4.69442,0 8.5,3.80558 8.5,8.5c0,1.836651 -0.58252,3.537251 -1.57288,4.92712l5.584801,5.584801c0.5502,0.5502 0.545609,1.43055 -0.0002,1.976358l-0.023441,0.023441c-0.54442,0.54442 -1.43066,0.545898 -1.976358,0.0002l-5.584801,-5.584801l0,0zm-4.92712,-0.42712c3.589849,0 6.5,-2.910151 6.5,-6.5c0,-3.58985 -2.910151,-6.5 -6.5,-6.5c-3.58985,0 -6.5,2.91015 -6.5,6.5c0,3.589849 2.91015,6.5 6.5,6.5l0,0z"/>
 </g>
</svg>