<svg width="512" height="512" xmlns="http://www.w3.org/2000/svg">

 <g>
  <title>background</title>
  <rect fill="none" id="canvas_background" height="402" width="582" y="-1" x="-1"/>
 </g>
 <g>
  <title>Layer 1</title>
  <path fill="#d5d5d5" id="svg_2" d="m256,461.040009c113.059998,0 205.039978,-91.980011 205.039978,-205.039978s-91.97998,-205.040031 -205.039978,-205.040031s-205.040001,91.980003 -205.040001,205.040001s91.980003,205.040009 205.040001,205.040009zm0,-378.080009c95.420013,0 173.039978,77.629997 173.039978,173.039986s-77.619965,173.040024 -173.039978,173.040024s-173.040001,-77.619995 -173.040001,-173.040009s77.620003,-173.040001 173.040001,-173.040001z" class="st0"/>
  <path fill="#d5d5d5" id="svg_3" d="m256,272l107.790009,0c8.839996,0 16,-7.160004 16,-16s-7.160004,-16 -16,-16l-91.790009,0l0,-91.080002c0,-8.839996 -7.160004,-16 -16,-16s-16,7.160004 -16,16l0,107.080002c0,8.839996 7.160004,16 16,16z" class="st0"/>
 </g>
</svg>