<svg width="62" height="62" xmlns="http://www.w3.org/2000/svg">

 <g>
  <title>background</title>
  <rect fill="none" id="canvas_background" height="64" width="64" y="-1" x="-1"/>
 </g>
 <g>
  <title>Layer 1</title>
  <path id="circle_1_" fill="#ff503f" d="m60.515823,30.515827c0,16.599998 -13.400002,30 -30,30s-30,-13.400002 -30,-30s13.400002,-30 30,-30s30,13.400002 30,30zm-30,-26c-14.400002,0 -26,11.599998 -26,26s11.599998,26 26,26s26,-11.599998 26,-26s-11.599998,-26 -26,-26z"/>
  <path id="line" fill="#ff503f" d="m30.515823,42.515827l0,0c-1.099998,0 -2,-0.900002 -2,-2l0,-20c0,-1.099998 0.900002,-2 2,-2l0,0c1.099998,0 2,0.900002 2,2l0,20c0,1.099998 -0.900002,2 -2,2z"/>
 </g>
</svg>