<svg width="32" height="32" xmlns="http://www.w3.org/2000/svg">

 <g>
  <title>background</title>
  <rect fill="none" id="canvas_background" height="402" width="582" y="-1" x="-1"/>
 </g>
 <g>
  <title>Layer 1</title>
  <path transform="rotate(-9, 15.8945, 14.9043)" fill="#d5d5d5" d="m2.904722,4.519582c0.13873,-0.070145 0.296684,-0.104892 0.453798,-0.104892c0.161295,0 0.323429,0.036056 0.463824,0.110142l25.071759,13.111807c0.258244,0.134398 0.400318,0.371063 0.366888,0.613634c-0.031757,0.241919 -0.23233,0.451046 -0.520662,0.540211l-6.538706,2.052647l-3.074636,4.220697c-0.147085,0.202574 -0.420374,0.327799 -0.716213,0.330416c-0.003344,0 -0.00585,0 -0.009193,0c-0.293339,0 -0.565794,-0.121937 -0.716219,-0.318623l-1.735799,-2.270302l-8.102364,2.541725c-0.099445,0.031466 -0.203914,0.046541 -0.310052,0.046541c-0.142079,0 -0.282467,-0.028187 -0.409501,-0.084564c-0.220632,-0.097036 -0.371902,-0.267481 -0.414521,-0.463507l-4.178631,-19.66772c-0.054318,-0.257642 0.091091,-0.515949 0.370229,-0.658212zm23.740448,13.516309l-19.367934,-10.129523l14.081977,11.824889c0.074371,-0.03475 0.140392,-0.080637 0.22229,-0.106209l5.063667,-1.589157zm-5.894375,2.156244c0.001678,-0.002617 0.004189,-0.003935 0.00585,-0.006559l-15.831141,-13.292097l13.496137,16.495971l2.329155,-3.197315zm-12.559274,3.633938l7.137926,-2.2395c0.169655,-0.052446 0.345998,-0.070145 0.520669,-0.078011l-10.991463,-13.366179l3.332868,15.683689z"/>
 </g>
</svg>